# xmcd
#
# Track frame offsets:
#	150
#	13527
#	28519
#	47922
#	67884
#	85351
#	103679
#	121183
#	137909
#	152184
#	177282
#
# Disc length: 2576 seconds
#
# Revision: 0
# Processed by: cddbd v1.5.2PL0 Copyright (c) Steve Scherf et al.
# Submitted via: EasyCDDAExtractor 16.0.0.1
#
DISCID=8c0a0e0b
DTITLE=Virve Rosti - Pitk‰st‰ aikaa
DYEAR=2014
DGENRE=
TTITLE0=Yst‰v‰lle
TTITLE1=Leikit‰‰n
TTITLE2=Hyv‰ rotsi
TTITLE3=Avara luonto
TTITLE4=7 vuoden kriisi
TTITLE5=Rakastaa tahdoin
TTITLE6=Susilapsi
TTITLE7=Kaukorakkautta
TTITLE8=Ei oo helppoo
TTITLE9=Suurin niist‰ on rakkaus
TTITLE10=No mit‰ pidit?
EXTD=
EXTT0=
EXTT1=
EXTT2=
EXTT3=
EXTT4=
EXTT5=
EXTT6=
EXTT7=
EXTT8=
EXTT9=
EXTT10=
PLAYORDER=
